# xmcd
#
# Track frame offsets: 
#        150
#        26070
#        51372
#        83867
#        110955
#        131547
#        149145
#        179040
#        209775
#        234285
#
# Disc length: 3655 seconds
#
# Revision: 1
# Processed by: cddbd v1.5.2PL0 Copyright (c) Steve Scherf et al.
# Submitted via: ExactAudioCopy v0.90b4
#
DISCID=a20e450a
DTITLE=JAZZ FOR Collection - Jazz for a Coffee Break [CD1]
DYEAR=2005
DGENRE=Jazz
TTITLE0=Wallace Roney - Blue in Green
TTITLE1=Hubert Laws - Kiss
TTITLE2=James Moody - Simplicity and Beauty
TTITLE3=Peter Erskine - Exit Up Right (feat. Eliane Elias)
TTITLE4=Pat Martino - The Visit
TTITLE5=Hank Jones - Ruby, My Dear
TTITLE6=Kenny Dorham - Saucer Eyes
TTITLE7=Curtis Fuller - Along Came Betty
TTITLE8=Woody Shaw - If I Were a Bell
TTITLE9=Richard "Groove" Holmes - Do Nothing 'Til You Hear from Me
EXTD=
EXTT0=
EXTT1=
EXTT2=
EXTT3=
EXTT4=
EXTT5=
EXTT6=
EXTT7=
EXTT8=
EXTT9=
PLAYORDER=
